<svg xmlns="http://www.w3.org/2000/svg" width="84" height="48" viewBox="0 0 84 48">
    <g fill="none" fill-rule="evenodd" stroke="#FDC928" stroke-linecap="round" stroke-linejoin="round" stroke-width="1.8">
        <path d="M1.3 46.19h81.765M23.464 34.31a19.007 19.007 0 0 1 4.212-11.97 19.118 19.118 0 0 1 4.956-4.355 18.813 18.813 0 0 1 5.052-2.16 19.162 19.162 0 0 1 4.902-.636A19.032 19.032 0 0 1 53.56 18.65a19.141 19.141 0 0 1 4.836 4.896 19.003 19.003 0 0 1 3.096 7.854v.006c.15.948.222 1.914.222 2.904M42.708 10.158V1.3M61.277 16.392l6.264-6.264M23.9 16.392l-6.264-6.264M17.521 28.479H9.579M74.787 28.479h-7.943"/>
        <path d="M37.423 28.364l5.285-5.285 5.284 5.285M42.708 23.079v14.36"/>
    </g>
</svg>
