<svg xmlns="http://www.w3.org/2000/svg" width="84" height="48" viewBox="0 0 84 48">
    <g fill="none" fill-rule="evenodd" stroke="#000" stroke-linecap="round" stroke-linejoin="round" stroke-width="1.8">
        <path d="M1.3 46.19h81.765M23.463 34.31a19.008 19.008 0 0 1 4.213-11.97 19.106 19.106 0 0 1 4.955-4.355 18.83 18.83 0 0 1 5.052-2.16 19.162 19.162 0 0 1 4.902-.636A19.032 19.032 0 0 1 53.56 18.65a19.131 19.131 0 0 1 4.836 4.896 18.995 18.995 0 0 1 3.096 7.854v.006c.15.948.222 1.914.222 2.904M42.707 10.158V1.3M61.277 16.392l6.264-6.264M23.9 16.392l-6.264-6.264M17.521 28.479H9.579M74.786 28.479h-7.942"/>
        <path d="M47.992 32.154l-5.285 5.285-5.284-5.285M42.707 37.439v-14.36"/>
    </g>
</svg>
